<svg xmlns="http://www.w3.org/2000/svg" width="51" height="44.324" viewBox="0 0 51 44.324">
  <g id="Group_4" data-name="Group 4" transform="translate(-1616.372 -643.859)">
    <path id="Path_1" data-name="Path 1" d="M1620.275,688.183v-4.79h-3.9V643.859h51v39.534H1629.2Zm-.627-8.066h3.9v2.59l4.825-2.59h35.72V647.135h-44.448Z" fill="#b9bab9"/>
    <g id="Group_3" data-name="Group 3" transform="translate(1622.025 647.794)">
      <g id="Group_2" data-name="Group 2">
        <path id="Path_2" data-name="Path 2" d="M1632.136,673.651h-5.6a3.328,3.328,0,0,1,3.328-3.327h2.272Z" transform="translate(-1626.536 -659.541)" fill="#202f84"/>
        <path id="Path_3" data-name="Path 3" d="M1646.38,666.876h-3.2a3.163,3.163,0,0,1-1.745-.69,3.707,3.707,0,0,1-1.307-1.4,3.823,3.823,0,0,1-1.1,1.364,2.519,2.519,0,0,1-1.542.73h-2.776v-3.328q.244,0,1.444.049.958.033,1.558,0a6.5,6.5,0,0,0,1.461-.227q.536-.179,1.12-1.3.552-1.055.828-1.055a.133.133,0,0,1,.1.032.189.189,0,0,1,.032.13,2.785,2.785,0,0,1-.057.454,2.817,2.817,0,0,0-.057.454q0,1.461,2.419,1.461h2.824Zm-7.337-11.817,1.688,1.688-1.688,1.688-1.688-1.688Zm5.064,1.688-1.688,1.688-1.688-1.688,1.688-1.688Z" transform="translate(-1630.164 -652.765)" fill="#202f84"/>
        <path id="Path_4" data-name="Path 4" d="M1658.375,673.651h-5.6v-3.327h5.6Z" transform="translate(-1638.6 -659.541)" fill="#202f84"/>
        <path id="Path_5" data-name="Path 5" d="M1676.073,664.725a11.073,11.073,0,0,1-.438,3.133q-.617,2.159-1.85,2.159a2.972,2.972,0,0,1-1.453-.6,3.349,3.349,0,0,0-1.177-.6l-.146.049a3.909,3.909,0,0,1-2.874,1.461,4.932,4.932,0,0,1-2.013-.568,6.961,6.961,0,0,0-1.38-.568c-.022.01-.06.027-.114.048a2.859,2.859,0,0,1-1.639,1.056,13.709,13.709,0,0,1-2.013.081v-3.328q1.721,0,1.8-.016a2.646,2.646,0,0,0,1.623-.666,7.4,7.4,0,0,0,.65-1.12q.455-.86.536-.86.13,0,.13,1.2,0,1.738,2.24,1.737a3.286,3.286,0,0,0,2.208-.746,6.967,6.967,0,0,0,1.4-1.9q.406-.747.6-.747.179,0,.178.536a3.494,3.494,0,0,1-.138.82,4.222,4.222,0,0,0-.138.625q0,.389.99.7a4.793,4.793,0,0,0,1.38.26,4.216,4.216,0,0,0,.633-.049.34.34,0,0,0,.1-.276q0-1.233-.47-1.591l1.006-2.013Q1676.073,663.216,1676.073,664.725Z" transform="translate(-1642.77 -656.263)" fill="#202f84"/>
        <path id="Path_6" data-name="Path 6" d="M1694.391,663.447a38.127,38.127,0,0,1-.146,4.025q-.341,2.678-1.494,3.474v-1.1q.017-2.841-.211-8.246-.19-4.381-.232-6.955a3.761,3.761,0,0,1,.737-2.3l1.028-1.385a.051.051,0,0,1,.091.029l.047,5.644q0,1.055.1,3.409Q1694.391,662.246,1694.391,663.447Z" transform="translate(-1656.676 -650.935)" fill="#202f84"/>
      </g>
      <path id="Path_7" data-name="Path 7" d="M1640.9,687.184a10.887,10.887,0,0,1-1.591,5.389q-1.818,3.133-4.155,3.2l-.455.016a7.814,7.814,0,0,1-2.548-.39,6.4,6.4,0,0,1-2.289-1.169,8.874,8.874,0,0,0,.941.048,9.091,9.091,0,0,0,5.99-2.013q3.052-2.549,3.052-3.961a2.688,2.688,0,0,0-.763-1.477,5.225,5.225,0,0,0-1.25-1.168l.731-2.873a9.033,9.033,0,0,1,1.7,1.915A4.681,4.681,0,0,1,1640.9,687.184Z" transform="translate(-1628.013 -665.072)" fill="#202f84"/>
      <path id="Path_8" data-name="Path 8" d="M1658.316,688.18h-2.695a2.855,2.855,0,0,1-1.136-.357,3.156,3.156,0,0,1-1.234-1.007q-1.494-2.37-1.591-7.532l-.153-10.5a4.3,4.3,0,0,1,1.107-2.946h0a.207.207,0,0,1,.361.138v11.894q0,5.259,1.916,6.59a2.684,2.684,0,0,0,1.477.422q-.812-.033,1.948-.033Z" transform="translate(-1638.006 -657.52)" fill="#202f84"/>
      <path id="Path_9" data-name="Path 9" d="M1675.859,688.072a10.772,10.772,0,0,1-.454,3.117q-.65,2.142-1.883,2.143a2.928,2.928,0,0,1-1.429-.6,3.221,3.221,0,0,0-1.185-.6l-.162.048a4.075,4.075,0,0,1-2.97,1.558,4.319,4.319,0,0,1-1.932-.617,5.577,5.577,0,0,0-1.363-.617.5.5,0,0,0-.114.049,2.81,2.81,0,0,1-1.64,1.071,16.747,16.747,0,0,1-2.013.065V690.36q1.689,0,1.8-.016a2.76,2.76,0,0,0,1.623-.666,5.154,5.154,0,0,0,.649-1.1q.454-.861.536-.86.13,0,.179.26a3,3,0,0,1-.016.519q-.033.422-.032.405,0,1.738,2.24,1.737a3.285,3.285,0,0,0,2.207-.746,6.971,6.971,0,0,0,1.4-1.9q.406-.747.6-.747.13,0,.13.471a4.307,4.307,0,0,1-.227,1.509q0,.374,1.007.7a4.745,4.745,0,0,0,1.363.26,4.3,4.3,0,0,0,.633-.048.344.344,0,0,0,.1-.276q0-1.233-.471-1.591l1.007-2.013Q1675.859,686.53,1675.859,688.072Zm-7.493-6.385,1.688,1.688-1.688,1.688-1.688-1.688Zm3.474-1.818-1.688,1.688-1.688-1.688,1.688-1.688Zm1.591,3.507-1.688,1.688-1.688-1.688,1.688-1.688Z" transform="translate(-1642.408 -663.028)" fill="#202f84"/>
      <path id="Path_10" data-name="Path 10" d="M1637.994,686.081a6.147,6.147,0,0,1-.958,3.117q-1.088,1.818-2.452,1.818-2.24,0-2.24-2.516a11.437,11.437,0,0,1,1.136-4.415,7.009,7.009,0,0,1-.049-.812,5.446,5.446,0,0,1,.779-2.792,4.1,4.1,0,0,0,.373.958q2.062,1.575,2.354,1.883A3.945,3.945,0,0,1,1637.994,686.081Zm-.99.7q0-.292-1.136-1.274t-1.477-.982q-.487,0-.779.746a3.244,3.244,0,0,0-.211,1.136q0,1.689,1.266,1.688a3.315,3.315,0,0,0,1.4-.406Q1637,687.25,1637,686.779Z" transform="translate(-1629.114 -664.049)" fill="#202f84"/>
      <rect id="Rectangle_1" data-name="Rectangle 1" width="2.387" height="2.387" transform="translate(0.358 20.011) rotate(-45)" fill="#202f84"/>
      <rect id="Rectangle_2" data-name="Rectangle 2" width="2.387" height="2.387" transform="translate(0.358 16.635) rotate(-45)" fill="#202f84"/>
      <path id="Path_11" data-name="Path 11" d="M1695.779,691.583l-.73,1.2h-.682a4.934,4.934,0,0,0-3.246,1.3l-.179-.309a4.781,4.781,0,0,1,.373-1.1,6.044,6.044,0,0,0-.39-.779,1.754,1.754,0,0,1-.26-.812q0-.454,1.291-1.485a4.051,4.051,0,0,1,1.761-1.031.974.974,0,0,1,.665.26.8.8,0,0,1,.292.617.879.879,0,0,1-.2.512.546.546,0,0,1-.438.268,1.349,1.349,0,0,1-.438-.13,1.354,1.354,0,0,0-.487-.13,1.231,1.231,0,0,0-.715.317.851.851,0,0,0-.405.625q0,.682,1.363.682Z" transform="translate(-1655.947 -667.637)" fill="#202f84"/>
      <path id="Path_12" data-name="Path 12" d="M1676.359,655.321q0,2.138-1.207,2.138-.822,0-.822-.932a2.523,2.523,0,0,1,.53-1.389,1.316,1.316,0,0,1,.256-.8q.255-.347.493-.348Q1676.358,653.987,1676.359,655.321Zm-.293.6q-.129-.749-.75-.749a1.364,1.364,0,0,0-.293.037q-.091.164-.182.347a1.182,1.182,0,0,0-.128.493q0,.348.31.348A1.687,1.687,0,0,0,1676.066,655.924Z" transform="translate(-1648.399 -652.29)" fill="#202f84"/>
      <path id="Path_13" data-name="Path 13" d="M1643.248,677.674q-.985.493-4,2.029a.256.256,0,0,1-.116.029c-.1,0-.145-.067-.145-.2a.976.976,0,0,1,.436-.87,31.678,31.678,0,0,1,3.681-1.971.91.91,0,0,1,.348-.087.18.18,0,0,1,.2.2A1.672,1.672,0,0,1,1643.248,677.674Z" transform="translate(-1632.244 -662.327)" fill="#202f84"/>
      <path id="Path_14" data-name="Path 14" d="M1663.815,682.627q-.985.493-4,2.029a.257.257,0,0,1-.116.029c-.1,0-.145-.068-.145-.2a.975.975,0,0,1,.435-.869,31.586,31.586,0,0,1,3.68-1.971.914.914,0,0,1,.348-.087.18.18,0,0,1,.2.2A1.674,1.674,0,0,1,1663.815,682.627Z" transform="translate(-1641.673 -664.525)" fill="#202f84"/>
      <path id="Path_15" data-name="Path 15" d="M1694.246,699.251q-.985.493-4,2.029a.255.255,0,0,1-.116.029c-.1,0-.146-.067-.146-.2a.977.977,0,0,1,.435-.87,31.669,31.669,0,0,1,3.681-1.97.9.9,0,0,1,.348-.087.18.18,0,0,1,.2.2A1.669,1.669,0,0,1,1694.246,699.251Z" transform="translate(-1655.645 -671.904)" fill="#202f84"/>
    </g>
  </g>
</svg>
